<svg width="559" height="504" viewBox="0 0 559 504" fill="none" xmlns="http://www.w3.org/2000/svg">
<path d="M2.70235 227.947L-6.10352e-05 240.561L13.9655 238.76L2.70235 227.947Z" fill="#F99345"/>
<path d="M343.719 500.043H165.616C154.117 500.043 144.793 490.719 144.793 479.22V34.3362C144.793 22.8369 154.115 13.5136 165.616 13.5136H343.719C355.218 13.5136 364.541 22.8354 364.541 34.3362V479.22C364.541 490.721 355.218 500.043 343.719 500.043Z" fill="#31003A"/>
<path d="M359.426 500.043H173.916C162.417 500.043 153.093 490.719 153.093 479.22V34.3362C153.093 22.8369 162.415 13.5136 173.916 13.5136H359.426C370.925 13.5136 380.248 22.8354 380.248 34.3362V479.22C380.248 490.721 370.926 500.043 359.426 500.043Z" fill="#44004E"/>
<path d="M370.142 436.222H163.744C163.379 436.222 163.083 435.926 163.083 435.561V55.5253C163.083 55.1603 163.379 54.8636 163.744 54.8636H370.142C370.507 54.8636 370.803 55.1603 370.803 55.5253V435.561C370.802 435.926 370.507 436.222 370.142 436.222Z" fill="#FAF0FC"/>
<path d="M270.171 436.222H163.744C163.379 436.222 163.083 435.926 163.083 435.561V55.5253C163.083 55.1603 163.379 54.8636 163.744 54.8636H270.171C270.536 54.8636 270.833 55.1603 270.833 55.5253V435.561C270.831 435.926 270.536 436.222 270.171 436.222Z" fill="#ECDFEF"/>
<path opacity="0.46" d="M313.525 31.2346H259.986V36.439H313.525V31.2346Z" fill="#FAF0FC"/>
<path opacity="0.46" d="M254.511 31.1321H233.465V36.2278H254.511V31.1321Z" fill="#FAF0FC"/>
<path d="M267.481 486.61C277.713 486.61 286.008 478.315 286.008 468.083C286.008 457.851 277.713 449.556 267.481 449.556C257.249 449.556 248.954 457.851 248.954 468.083C248.954 478.315 257.249 486.61 267.481 486.61Z" fill="#FAF0FC"/>
<path d="M345.949 256.29H195.568C193.049 256.29 191.008 254.247 191.008 251.73C191.008 249.211 193.05 247.17 195.568 247.17H345.949C348.469 247.17 350.509 249.212 350.509 251.73C350.511 254.247 348.469 256.29 345.949 256.29Z" fill="#44004E"/>
<path d="M270.319 256.29H195.568C193.049 256.29 191.008 254.247 191.008 251.73C191.008 249.211 193.05 247.17 195.568 247.17H270.319C272.838 247.17 274.879 249.212 274.879 251.73C274.879 254.247 272.838 256.29 270.319 256.29Z" fill="#F99345"/>
<path d="M345.499 299.086H195.117C192.598 299.086 190.556 297.043 190.556 294.526C190.556 292.007 192.598 289.966 195.117 289.966H345.499C348.018 289.966 350.059 292.008 350.059 294.526C350.06 297.045 348.018 299.086 345.499 299.086Z" fill="#44004E"/>
<path d="M311.859 299.086H195.117C192.598 299.086 190.556 297.043 190.556 294.526C190.556 292.007 192.598 289.966 195.117 289.966H311.859C314.378 289.966 316.418 292.008 316.418 294.526C316.42 297.045 314.378 299.086 311.859 299.086Z" fill="#F99345"/>
<path d="M343.697 337.828H193.316C190.796 337.828 188.754 335.786 188.754 333.268C188.754 330.749 190.796 328.708 193.316 328.708H343.697C346.216 328.708 348.257 330.751 348.257 333.268C348.259 335.786 346.216 337.828 343.697 337.828Z" fill="#44004E"/>
<path d="M225.807 337.828H193.316C190.796 337.828 188.754 335.786 188.754 333.268C188.754 330.749 190.796 328.708 193.316 328.708H225.807C228.326 328.708 230.368 330.751 230.368 333.268C230.367 335.786 228.326 337.828 225.807 337.828Z" fill="#F99345"/>
<path d="M256.481 225.518C256.481 227.688 254.723 229.446 252.553 229.446C250.383 229.446 248.625 227.688 248.625 225.518C248.625 223.348 250.383 221.59 252.553 221.59C254.723 221.59 256.481 223.35 256.481 225.518Z" fill="#F99345"/>
<path d="M272.705 225.633C272.705 227.803 270.946 229.561 268.777 229.561C266.607 229.561 264.849 227.803 264.849 225.633C264.849 223.463 266.607 221.705 268.777 221.705C270.945 221.705 272.705 223.463 272.705 225.633Z" fill="#F99345"/>
<path d="M282.916 229.401C285.085 229.401 286.844 227.642 286.844 225.473C286.844 223.304 285.085 221.545 282.916 221.545C280.747 221.545 278.988 223.304 278.988 225.473C278.988 227.642 280.747 229.401 282.916 229.401Z" fill="#F99345"/>
<path opacity="0.41" d="M417.878 429.726L416.9 417.882L454.221 417.076L453.838 428.514L417.878 429.726Z" fill="#210328"/>
<path d="M105.787 342.977C86.7906 329.037 83.9453 314.795 91.5633 304.414C99.1813 294.032 114.38 291.441 133.376 305.38C152.372 319.32 161.595 339.035 153.977 349.417C146.357 359.798 124.783 356.916 105.787 342.977Z" fill="#F99345"/>
<path d="M103.69 389.211C91.2342 378.448 90.1268 368.272 96.1218 361.336C102.117 354.398 112.942 353.327 125.398 364.09C137.854 374.853 143.093 389.202 137.099 396.138C131.103 403.076 116.146 399.974 103.69 389.211Z" fill="#F99345"/>
<path d="M124.023 326.218C117.814 321.659 111.538 317.181 105.02 313.104C101.761 311.08 98.4591 309.074 94.9724 307.569C94.1042 307.194 93.2127 306.876 92.3259 306.666C91.8817 306.558 91.4406 306.505 91.0291 306.505L90.7386 306.536L90.5973 306.548C90.6066 306.564 90.6284 306.531 90.6159 306.548C90.5818 306.567 90.4575 306.735 90.383 306.918C89.7555 308.527 89.5847 310.532 89.3766 312.399C88.7289 320.026 88.6031 327.737 88.5161 335.428C88.4478 343.124 88.4928 350.824 88.5829 358.525C88.6637 373.925 89.0007 389.328 89.288 404.73L90.1935 450.946C89.2803 435.561 88.6357 420.165 88.0937 404.762C87.5594 389.36 87.2333 373.952 87.0314 358.539C86.9879 350.831 86.991 343.123 87.1059 335.411C87.2643 327.702 87.3528 319.986 88.1946 312.273C88.4633 310.336 88.6031 308.435 89.4061 306.452C89.5334 306.204 89.6546 305.933 90.0118 305.666C90.0894 305.601 90.237 305.548 90.3535 305.511L90.5709 305.486L90.9996 305.449C91.5494 305.455 92.0681 305.536 92.5573 305.663C93.5389 305.915 94.463 306.269 95.3545 306.671C98.9173 308.292 102.19 310.358 105.425 312.467C111.836 316.777 118.025 321.379 124.023 326.218Z" fill="#31003A"/>
<path d="M76.5278 369.973C88.0363 358.202 88.3159 347.999 81.8006 341.63C75.2868 335.261 64.4446 335.136 52.936 346.907C41.4275 358.679 37.3801 373.385 43.8938 379.753C50.4091 386.124 65.0192 381.745 76.5278 369.973Z" fill="#F99345"/>
<path d="M113.377 373.773C110.3 370.237 107.08 366.767 103.359 363.975C102.429 363.287 101.468 362.637 100.45 362.139C99.4454 361.645 98.3395 361.268 97.3424 361.412C96.8827 361.498 96.3298 361.699 96.2056 362.008C95.9757 362.403 95.8064 362.954 95.6853 363.498C95.4321 364.597 95.2923 365.755 95.1774 366.907C94.4164 376.195 94.5872 385.617 94.741 394.987C94.8311 404.371 95.1479 413.757 95.4042 423.144L96.1838 451.315C95.3249 441.955 94.7208 432.576 94.2098 423.192C93.7051 413.806 93.4006 404.412 93.1879 395.011C93.1382 390.309 93.1289 385.605 93.2096 380.899C93.3168 376.193 93.3975 371.481 93.9955 366.77C94.1492 365.591 94.3247 364.416 94.6338 363.234C94.7922 362.642 94.9662 362.052 95.3436 361.442C95.4274 361.292 95.5626 361.134 95.7474 360.988C95.9198 360.837 96.0627 360.811 96.2242 360.719C96.5302 360.558 96.8827 360.493 97.212 360.443C98.5787 360.305 99.7762 360.809 100.845 361.362C101.918 361.935 102.896 362.628 103.822 363.377C107.466 366.435 110.564 370.01 113.377 373.773Z" fill="#31003A"/>
<path d="M66.1902 357.138C67.574 354.583 69.1038 352.104 70.7688 349.714C72.4353 347.327 74.2182 345.006 76.2916 342.919C77.3353 341.885 78.4629 340.917 79.7364 340.119C81.0084 339.372 82.5072 338.676 84.155 338.907C84.3507 338.928 84.5526 338.942 84.826 339.086C85.1086 339.192 85.2111 339.376 85.4022 339.529C85.6833 339.858 85.8992 340.204 86.07 340.551C86.421 341.245 86.6726 341.95 86.8963 342.658C87.3373 344.076 87.6744 345.505 87.9648 346.94C89.1296 352.679 89.7167 358.477 90.3038 364.264C90.866 370.055 91.3102 375.853 91.7047 381.652C92.3819 393.259 92.913 404.87 93.2252 416.485C93.528 428.103 93.716 439.721 93.6212 451.342L92.0324 416.53C91.4733 404.932 90.9545 393.33 90.1578 381.752C89.4201 370.181 88.6792 358.559 86.7969 347.165C86.5453 345.747 86.2486 344.339 85.8603 342.973C85.6646 342.293 85.4394 341.621 85.149 341.012C85.0077 340.703 84.8368 340.428 84.6567 340.2C84.4191 339.992 84.4082 339.908 84.0168 339.875C82.7448 339.647 81.3858 340.192 80.1853 340.867C78.9754 341.58 77.868 342.494 76.8181 343.467C72.634 347.422 69.2902 352.246 66.1902 357.138Z" fill="#31003A"/>
<path d="M92.0899 414.378C99.6349 400.644 96.3113 390.684 87.4322 385.805C78.553 380.927 67.4793 382.979 59.9343 396.713C52.3893 410.447 53.4718 425.535 62.351 430.414C71.2301 435.292 84.5449 428.112 92.0899 414.378Z" fill="#F99345"/>
<path d="M71.8403 410.09C73.3158 406.193 75.1251 402.427 77.1318 398.758C79.2114 395.139 81.51 391.584 84.5913 388.613C86.1382 387.163 87.9616 385.811 90.2338 385.358C90.8038 385.266 91.3785 385.215 91.9624 385.266C92.5557 385.285 93.2779 385.529 93.7532 385.909C94.7565 386.661 95.3389 387.653 95.8421 388.621C96.8019 390.589 97.3766 392.639 97.8611 394.692C98.3426 396.747 98.6998 398.817 99.0073 400.889C100.09 409.198 100.494 417.538 100.615 425.872C100.706 434.206 100.556 442.539 100.025 450.853C99.9594 446.689 99.9252 442.529 99.7979 438.37C99.7187 434.213 99.6053 430.056 99.4204 425.905C99.0539 417.608 98.6594 409.293 97.4713 401.108C96.8796 397.048 96.2288 392.878 94.5778 389.248C94.1476 388.374 93.6165 387.529 92.9455 387.024C92.5976 386.759 92.2901 386.653 91.8506 386.622C91.394 386.574 90.9343 386.611 90.4714 386.678C88.6217 387.034 86.9024 388.169 85.3912 389.494C82.3673 392.207 79.9662 395.644 77.7825 399.145C75.574 402.65 73.6357 406.334 71.8403 410.09Z" fill="#31003A"/>
<path d="M133.737 458.224L133.741 458.724C133.766 461.277 133.577 463.776 133.173 466.191C130.099 485.808 114.225 500.816 94.9539 501.006C90.9748 501.044 87.1309 500.44 83.4966 499.293C80.291 498.297 77.2515 496.857 74.4528 495.059C67.5322 490.618 61.9891 483.968 58.7012 475.997C57.3127 472.672 56.3218 469.102 55.8155 465.37C55.5251 463.461 55.3775 461.493 55.3589 459.496C55.2315 446.543 60.7156 439.841 69.3695 436.432C70.904 435.818 72.5394 435.317 74.2478 434.915C77.3214 434.157 80.6699 433.681 84.2188 433.389C85.9288 433.243 87.6822 433.155 89.4792 433.096C91.1053 433.023 92.7594 432.992 94.4429 432.976C100.82 432.914 106.827 433.111 112.144 434.029C115.416 434.582 118.42 435.408 121.071 436.609C128.664 439.998 133.493 446.414 133.737 458.224Z" fill="#31003A"/>
<path opacity="0.28" d="M70.3666 459.645C64.7614 459.699 59.661 461.861 55.8139 465.366C56.3218 469.099 57.3127 472.671 58.6996 475.994C60.9283 471.879 65.2802 469.068 70.2874 469.018C77.6476 468.945 83.669 474.864 83.742 482.224C83.801 488.23 79.8856 493.332 74.4528 495.056C77.2515 496.854 80.291 498.294 83.4966 499.289C89.021 495.268 92.5808 488.714 92.5078 481.354C92.3882 469.245 82.4778 459.527 70.3666 459.645Z" fill="white"/>
<path opacity="0.28" d="M131.457 458.446C124.096 458.519 118.059 452.614 117.988 445.254C117.955 441.972 119.111 438.951 121.069 436.606C118.418 435.405 115.414 434.579 112.142 434.026C110.476 437.153 109.541 440.742 109.578 444.552C109.697 456.663 119.608 466.381 131.703 466.261C132.204 466.256 132.688 466.238 133.173 466.19C133.577 463.774 133.766 461.276 133.741 458.722L133.736 458.222C132.997 458.359 132.241 458.438 131.457 458.446Z" fill="white"/>
<path opacity="0.28" d="M111.46 468.853C105.577 468.911 100.851 473.732 100.91 479.621C100.968 485.51 105.788 490.236 111.67 490.179C117.559 490.121 122.286 485.301 122.228 479.411C122.169 473.522 117.35 468.796 111.46 468.853ZM111.549 486.379C107.969 486.414 105.034 483.543 104.999 479.963C104.964 476.383 107.842 473.447 111.422 473.413C115.001 473.377 117.929 476.257 117.965 479.835C118.001 483.415 115.129 486.343 111.549 486.379Z" fill="white"/>
<path opacity="0.28" d="M89.4791 433.093C87.6821 433.153 85.9287 433.242 84.2187 433.386C85.5 434.557 86.3014 436.233 86.3201 438.102C86.3558 441.681 83.4872 444.606 79.9073 444.642C76.3273 444.677 73.3889 441.81 73.3531 438.229C73.3423 437.031 73.6575 435.887 74.2477 434.91C72.5393 435.312 70.9039 435.814 69.3694 436.427C69.2886 436.899 69.2653 437.384 69.27 437.884C69.3275 443.775 74.139 448.493 80.03 448.434C85.9209 448.377 90.6393 443.565 90.5802 437.674C90.5632 436.036 90.1764 434.47 89.4791 433.093Z" fill="white"/>
<path d="M84.3601 270.957C105.924 270.957 123.405 253.476 123.405 231.912C123.405 210.348 105.924 192.867 84.3601 192.867C62.796 192.867 45.3148 210.348 45.3148 231.912C45.3148 253.476 62.796 270.957 84.3601 270.957Z" fill="#D12F2F"/>
<path d="M78.3759 272.155C99.9399 272.155 117.421 254.674 117.421 233.11C117.421 211.545 99.9399 194.064 78.3759 194.064C56.8118 194.064 39.3307 211.545 39.3307 233.11C39.3307 254.674 56.8118 272.155 78.3759 272.155Z" fill="#F99345"/>
<path d="M89.9998 218H64.9998V222.714H73.8278C77.1127 223.248 79.5682 224.571 80.5715 226.316H64.9998V231.03H80.2502C80.0805 231.26 79.8857 231.473 79.663 231.673C76.9672 234.095 71.3573 234.206 66.3152 234.122L65.8683 234.115V237.359L82.5608 254H89.2788L73.8331 238.599C76.7317 238.274 80.3616 237.401 82.846 235.174C84.121 234.032 84.9999 232.639 85.4619 231.03H89.9998V226.316H85.6247C85.3282 225 84.73 223.794 83.8403 222.714H89.9998L89.9998 218Z" fill="#000B35"/>
<path d="M341.324 466.524C357.694 466.524 370.965 453.253 370.965 436.882C370.965 420.512 357.694 407.241 341.324 407.241C324.953 407.241 311.683 420.512 311.683 436.882C311.683 453.253 324.953 466.524 341.324 466.524Z" fill="#D12F2F"/>
<path d="M365.596 444.632C369.387 428.707 359.551 412.723 343.626 408.932C327.701 405.141 311.717 414.977 307.926 430.902C304.135 446.827 313.971 462.811 329.896 466.602C345.821 470.393 361.804 460.557 365.596 444.632Z" fill="#F99345"/>
<path d="M347 424H327V427.798H334.062C336.69 428.227 338.654 429.293 339.457 430.699H327V434.496H339.2C339.064 434.682 338.908 434.853 338.73 435.015C336.574 436.965 332.086 437.055 328.052 436.987L327.695 436.981V439.594L341.049 453H346.423L334.066 440.593C336.385 440.332 339.289 439.629 341.277 437.835C342.297 436.915 343 435.793 343.369 434.496H347V430.699H343.5C343.263 429.639 342.784 428.667 342.072 427.798H347L347 424Z" fill="#000B35"/>
<path d="M320.131 481.623C322.125 469.394 313.827 457.864 301.598 455.871C289.369 453.877 277.839 462.175 275.845 474.404C273.851 486.633 282.149 498.163 294.378 500.157C306.608 502.15 318.138 493.853 320.131 481.623Z" fill="#D12F2F"/>
<path d="M294.533 501.152C306.924 501.152 316.968 491.107 316.968 478.717C316.968 466.327 306.924 456.282 294.533 456.282C282.143 456.282 272.099 466.327 272.099 478.717C272.099 491.107 282.143 501.152 294.533 501.152Z" fill="#F99345"/>
<path d="M393.672 501.245H320.714C315.929 501.245 312.051 497.367 312.051 492.582C312.051 487.796 315.929 483.918 320.714 483.918H393.672C398.457 483.918 402.335 487.796 402.335 492.582C402.335 497.365 398.457 501.245 393.672 501.245Z" fill="#F99345"/>
<path d="M388.656 484.83H315.699C310.914 484.83 307.036 480.952 307.036 476.167C307.036 471.382 310.914 467.504 315.699 467.504H388.656C393.442 467.504 397.32 471.382 397.32 476.167C397.32 480.95 393.44 484.83 388.656 484.83Z" fill="#F99345"/>
<path opacity="0.28" d="M315.373 485.057L387.972 483.917L311.709 491.151C311.709 491.151 312.626 485.513 315.373 485.057Z" fill="#31003A"/>
<path d="M502.933 421.763C506.37 423.263 508.779 424.801 508.779 424.801L489.609 474.8C489.609 474.8 487.018 473.2 485.021 470.653C483.656 468.922 482.569 466.752 482.757 464.351C483.216 458.427 487.222 455.046 483.196 447.287C479.172 439.524 477.578 432.759 477.578 432.759L484.74 419.537C484.74 419.537 484.17 419.598 484.071 419.603C484.204 419.581 485.398 419.449 489.774 418.98C494.186 418.505 499.175 420.115 502.933 421.763Z" fill="#44004E"/>
<path d="M502.933 421.763C506.37 423.263 508.779 424.801 508.779 424.801L489.609 474.8C489.609 474.8 487.018 473.2 485.021 470.653L502.933 421.763Z" fill="#F99345"/>
<path d="M476.238 440.287L483.286 436.406L485.408 442.95L479.38 445.94L476.238 440.287Z" fill="#F99345"/>
<path d="M375.618 261.334C375.618 261.334 361.311 376.086 363.415 381.266C365.52 386.445 418.961 412.742 418.961 412.742L421.486 348.992L415.174 297.593L391.188 261.334H375.618Z" fill="#36013F"/>
<path d="M409.515 126.454C409.515 126.454 372.894 135.34 374.711 117.967C374.711 117.967 355.123 104.371 365.427 99.118C365.427 99.118 350.68 69.2206 379.77 70.0282C379.77 70.0282 392.496 52.4532 410.678 67.4019C410.678 67.4019 430.879 56.6948 433.708 83.5636C433.708 83.5636 442.596 86.9975 439.97 100.331C439.97 100.331 451.283 110.027 437.949 120.532C424.616 131.038 410.788 130.135 410.788 130.135L409.515 126.454Z" fill="#44004E"/>
<path d="M450.059 492.745C449.972 496.494 449.464 499.305 449.464 499.305L395.93 500.518C395.93 500.518 396.428 497.514 398.028 494.7C399.112 492.78 400.709 490.951 403.001 490.216C408.656 488.396 413.303 490.82 418.959 484.154C424.617 477.489 430.272 473.449 430.272 473.449L445.222 475.064C445.222 475.064 444.951 474.559 444.909 474.469C444.979 474.584 445.555 475.64 447.647 479.511C449.758 483.415 450.158 488.641 450.059 492.745Z" fill="#44004E"/>
<path d="M450.059 492.745C449.972 496.494 449.464 499.305 449.464 499.305L395.93 500.518C395.93 500.518 396.428 497.514 398.028 494.7L450.059 492.745Z" fill="#F99345"/>
<path d="M422.799 475.063L429.061 480.113L423.808 484.558L418.757 480.113L422.799 475.063Z" fill="#F99345"/>
<path d="M430.272 443.954L431.889 476.679C431.889 476.679 436.333 482.336 440.576 479.508C444.817 476.679 444.909 474.468 444.909 474.468L443.808 442.741L430.272 443.954Z" fill="#F6B6A6"/>
<path d="M383.203 271.434L409.869 322.746L420.374 448.803L456.332 447.591C456.332 447.591 460.371 317.091 458.352 263.355C458.352 263.355 439.362 256.082 435.727 255.678C432.091 255.274 401.788 256.082 401.788 256.082L383.203 271.434Z" fill="#44004E"/>
<path d="M457.73 384.965L471.009 391.834L456.197 425.368L457.73 384.965Z" fill="#36013F"/>
<path d="M487.194 421.654L463.357 407.513L458.508 420.847C458.508 420.847 477.901 431.352 482.345 431.756C486.79 432.159 490.022 428.12 487.194 421.654Z" fill="#F6B6A6"/>
<path d="M394.92 149.419C394.92 149.419 371.891 162.348 368.255 168.003C364.619 173.66 366.234 201.538 370.679 218.102C375.124 234.667 373.104 275.474 373.104 275.474C373.104 275.474 375.932 279.513 388.052 277.091C400.173 274.666 399.365 268.606 415.931 267.798C432.496 266.991 458.758 270.626 458.758 270.626C458.758 270.626 459.969 235.476 456.737 223.356C453.505 211.236 448.656 169.621 448.656 169.621C448.656 169.621 431.283 150.228 415.931 146.592L394.92 149.419Z" fill="#F99345"/>
<path d="M299.166 165.175L314.519 158.307L337.952 197.902L368.253 168.005L377.142 186.185L376.334 216.487C376.334 216.487 343.609 242.344 329.871 237.899C316.136 233.456 299.166 165.175 299.166 165.175Z" fill="#F99345"/>
<path d="M448.656 169.62C448.656 169.62 435.323 179.316 431.687 192.649C428.051 205.983 438.555 224.164 441.787 235.477C445.019 246.789 432.495 282.343 432.495 282.343L451.888 293.252C451.888 293.252 468.05 266.587 468.858 244.365C469.665 222.143 458.756 179.721 448.656 169.62Z" fill="#F99345"/>
<path d="M425.728 280.625L423.606 287.899L450.575 301.838L455.423 295.778L426.636 277.595L425.728 280.625Z" fill="#36013F"/>
<path d="M397.345 127.602L393.709 150.632L393.895 153.477C394.161 157.53 398.836 159.654 402.063 157.187L415.931 146.59V111.44L397.345 127.602Z" fill="#F6B6A6"/>
<path d="M380.981 95.8859C380.981 95.8859 379.366 120.127 381.991 126.592C384.617 133.057 395.121 136.896 404.011 133.662C412.899 130.43 417.546 117.906 418.152 111.44C418.757 104.976 419.365 93.2596 415.727 90.4314C412.091 87.6032 389.668 83.3617 384.819 85.9864C379.972 88.6127 380.981 95.8859 380.981 95.8859Z" fill="#F6B6A6"/>
<path d="M377.749 96.4916L411.284 94.0672C411.284 94.0672 410.88 113.663 416.537 118.51C416.537 118.51 420.576 114.874 420.982 106.39C421.385 97.905 423.608 90.2279 418.557 84.5715C413.506 78.9151 390.881 74.2697 385.224 78.9151C379.568 83.562 371.891 88.007 377.749 96.4916Z" fill="#44004E"/>
<path d="M431.485 111.238C431.485 116.482 427.234 120.733 421.991 120.733C416.748 120.733 412.497 116.482 412.497 111.238C412.497 105.995 416.748 101.744 421.991 101.744C427.234 101.744 431.485 105.995 431.485 111.238Z" fill="#F6B6A6"/>
<path d="M389.668 122.652L396.132 120.935C396.132 120.935 397.444 125.581 394.111 126.288C390.78 126.995 389.668 122.652 389.668 122.652Z" fill="#36203A"/>
<path d="M387.245 110.38C387.245 111.467 386.363 112.349 385.276 112.349C384.188 112.349 383.306 111.467 383.306 110.38C383.306 109.292 384.188 108.41 385.276 108.41C386.363 108.41 387.245 109.292 387.245 110.38Z" fill="#36203A"/>
<path d="M403.304 109.521C403.304 110.636 402.4 111.541 401.283 111.541C400.168 111.541 399.263 110.637 399.263 109.521C399.263 108.406 400.167 107.5 401.283 107.5C402.4 107.502 403.304 108.406 403.304 109.521Z" fill="#36203A"/>
<path d="M301.187 164.165C301.187 164.165 297.147 140.53 302.196 137.702C307.247 134.874 312.702 158.913 312.702 158.913L301.187 164.165Z" fill="#F6B6A6"/>
<path opacity="0.41" d="M384.82 277.898C384.82 277.898 386.437 300.524 392.497 309.412C398.558 318.301 397.75 314.261 398.558 329.614C399.365 344.966 413.91 371.633 413.91 371.633L409.87 322.746L384.82 277.898Z" fill="#210328"/>
<path d="M396.267 134.739L393.842 149.958C393.842 149.958 413.64 145.109 414.179 123.022C414.179 123.022 405.426 135.817 396.267 134.739Z" fill="#DD988A"/>
<path d="M399.264 101.341L399.163 103.259L404.616 103.561V101.441L399.264 101.341Z" fill="#36203A"/>
<path d="M386.94 102.956L387.041 104.976L381.992 105.986L381.79 104.27L386.94 102.956Z" fill="#36203A"/>
<path opacity="0.52" d="M409.19 117.602C409.19 118.439 407.511 119.117 405.44 119.117C403.368 119.117 401.689 118.439 401.689 117.602C401.689 116.764 403.368 116.087 405.44 116.087C407.511 116.087 409.19 116.764 409.19 117.602Z" fill="#D86C56"/>
<path opacity="0.52" d="M385.662 118.308C385.662 119.145 384.17 119.824 382.328 119.824C380.486 119.824 378.993 119.145 378.993 118.308C378.993 117.471 380.486 116.794 382.328 116.794C384.168 116.794 385.662 117.473 385.662 118.308Z" fill="#D86C56"/>
<path d="M418.354 112.115C418.354 112.115 421.047 105.515 423.875 106.862C426.703 108.208 424.279 111.576 424.279 111.576C424.279 111.576 424.414 108.479 422.662 109.555C420.912 110.633 420.776 113.326 419.565 113.326C418.354 113.326 418.354 112.115 418.354 112.115Z" fill="#DD988A"/>
<path opacity="0.41" d="M370.881 220.326C370.881 220.326 367.851 201.235 371.487 190.025C371.487 190.025 365.427 200.024 362.094 209.116C358.761 218.206 355.731 220.327 350.276 225.479C344.822 230.631 344.216 235.782 344.216 235.782C344.216 235.782 360.578 230.931 370.881 220.326Z" fill="#210328"/>
<path opacity="0.41" d="M447.847 171.237C447.847 171.237 437.342 181.338 434.11 192.649C430.878 203.962 433.303 222.952 436.131 230.224C438.959 237.496 440.17 244.769 440.17 244.769L452.291 245.98L441.786 248.405L437.342 266.182C437.342 266.182 440.17 253.455 437.746 247.597C435.322 241.739 429.665 211.436 429.059 204.164C428.806 201.123 428.941 197.621 429.184 194.577C429.586 189.54 431.766 184.816 435.328 181.229C438.659 177.878 443.201 173.818 447.847 171.237Z" fill="#210328"/>
<path d="M389.399 152.382C389.399 152.382 390.477 161.944 395.324 162.752C400.173 163.56 406.772 158.174 409.195 156.557C411.619 154.941 419.834 147.937 419.834 147.937L415.928 146.59C415.928 146.59 401.922 157.499 398.016 157.499C392.887 157.499 393.841 149.958 393.841 149.958L389.399 152.382Z" fill="#F99345"/>
<path d="M458.508 420.847L474.572 414.403L463.355 407.515L458.508 420.847Z" fill="#DD988A"/>
<path d="M430.471 448.638L444.365 460.317L443.963 447.832L430.471 448.638Z" fill="#DD988A"/>
<path d="M393.484 99.045L411.876 93.9431L401.807 92.4661L393.484 99.045Z" fill="#44004E"/>
<path d="M469.5 141.081L470.463 157.082C470.555 158.591 471.665 159.723 472.936 159.602L500.601 156.976C501.713 156.87 502.602 155.838 502.704 154.521C503.111 149.31 503.649 136.894 499.628 136C495.976 135.187 489.38 135.733 485.932 136.107C484.685 136.242 483.581 135.172 483.443 133.695L482.811 126.945C482.761 126.409 482.578 125.908 482.287 125.494C481.756 124.738 480.801 123.483 479.662 122.471C478.168 121.141 476.03 122.424 476.008 124.639L475.907 134.984C475.895 136.287 475.106 137.397 474.025 137.632L471.377 138.207C470.226 138.458 469.417 139.696 469.5 141.081Z" fill="#F99345"/>
<path d="M472.112 135.883L458.352 136.969L460.301 161.66L474.061 160.573L472.112 135.883Z" fill="#44004E"/>
<path d="M526.655 332.529H485.825C483.873 332.529 482.291 330.946 482.291 328.994V295.82C482.291 293.867 483.873 292.285 485.825 292.285H526.655C528.607 292.285 530.19 293.867 530.19 295.82V328.992C530.19 330.945 528.607 332.529 526.655 332.529Z" fill="#44004E"/>
<path d="M498.471 312.556C498.471 314.131 497.192 315.409 495.618 315.409C494.041 315.409 492.764 314.131 492.764 312.556C492.764 310.979 494.041 309.703 495.618 309.703C497.194 309.703 498.471 310.981 498.471 312.556Z" fill="#F99345"/>
<path d="M510.254 312.64C510.254 314.215 508.978 315.493 507.401 315.493C505.825 315.493 504.548 314.215 504.548 312.64C504.548 311.063 505.825 309.787 507.401 309.787C508.978 309.787 510.254 311.063 510.254 312.64Z" fill="#F99345"/>
<path d="M517.672 315.376C519.248 315.376 520.525 314.099 520.525 312.523C520.525 310.947 519.248 309.67 517.672 309.67C516.096 309.67 514.819 310.947 514.819 312.523C514.819 314.099 516.096 315.376 517.672 315.376Z" fill="#F99345"/>
<path d="M115.508 133.412H74.6779C72.7256 133.412 71.143 131.83 71.143 129.877V96.7045C71.143 94.7522 72.7256 93.1696 74.6779 93.1696H115.508C117.46 93.1696 119.042 94.7522 119.042 96.7045V129.877C119.042 131.83 117.46 133.412 115.508 133.412Z" fill="#44004E"/>
<path d="M83.4903 110.97L93.4007 121.783L109.468 106.766L105.864 103.162L93.4007 113.523L87.0935 107.516L83.4903 110.97Z" fill="#F99345"/>
<path d="M29.1484 296.908C29.1484 299.078 27.3903 300.836 25.2206 300.836C23.0509 300.836 21.2928 299.078 21.2928 296.908C21.2928 294.739 23.0509 292.98 25.2206 292.98C27.3903 292.98 29.1484 294.739 29.1484 296.908Z" fill="#F99345"/>
<path d="M45.3723 297.023C45.3723 299.193 43.6142 300.951 41.4445 300.951C39.2748 300.951 37.5167 299.193 37.5167 297.023C37.5167 294.853 39.2748 293.095 41.4445 293.095C43.6142 293.094 45.3723 294.853 45.3723 297.023Z" fill="#F99345"/>
<path d="M59.5133 296.863C59.5133 299.033 57.7552 300.791 55.5855 300.791C53.4158 300.791 51.6577 299.033 51.6577 296.863C51.6577 294.693 53.4158 292.935 55.5855 292.935C57.7537 292.935 59.5133 294.693 59.5133 296.863Z" fill="#F99345"/>
<path d="M459.494 56.1962C459.494 58.3659 457.736 60.124 455.566 60.124C453.396 60.124 451.638 58.3659 451.638 56.1962C451.638 54.0265 453.396 52.2684 455.566 52.2684C457.734 52.2684 459.494 54.0265 459.494 56.1962Z" fill="#F99345"/>
<path d="M475.716 56.3112C475.716 58.4809 473.958 60.239 471.788 60.239C469.619 60.239 467.86 58.4809 467.86 56.3112C467.86 54.1415 469.619 52.3834 471.788 52.3834C473.958 52.3834 475.716 54.1415 475.716 56.3112Z" fill="#F99345"/>
<path d="M489.857 56.1512C489.857 58.3209 488.099 60.079 485.929 60.079C483.76 60.079 482.002 58.3209 482.002 56.1512C482.002 53.9815 483.76 52.2234 485.929 52.2234C488.099 52.2234 489.857 53.9815 489.857 56.1512Z" fill="#F99345"/>
<path d="M93.2454 14.301C93.2454 16.4707 91.4872 18.2289 89.3175 18.2289C87.1478 18.2289 85.3897 16.4707 85.3897 14.301C85.3897 12.1314 87.1478 10.3732 89.3175 10.3732C91.4857 10.3732 93.2454 12.1314 93.2454 14.301Z" fill="#F99345"/>
<path d="M105.54 18.3439C107.709 18.3439 109.468 16.5853 109.468 14.416C109.468 12.2468 107.709 10.4882 105.54 10.4882C103.371 10.4882 101.612 12.2468 101.612 14.416C101.612 16.5853 103.371 18.3439 105.54 18.3439Z" fill="#F99345"/>
<path d="M123.609 14.2561C123.609 16.4258 121.851 18.1839 119.681 18.1839C117.511 18.1839 115.753 16.4258 115.753 14.2561C115.753 12.0864 117.511 10.3282 119.681 10.3282C121.851 10.3282 123.609 12.0864 123.609 14.2561Z" fill="#F99345"/>
<path d="M528.418 387.307C528.418 389.477 526.66 391.235 524.49 391.235C522.321 391.235 520.562 389.477 520.562 387.307C520.562 385.137 522.321 383.379 524.49 383.379C526.66 383.378 528.418 385.137 528.418 387.307Z" fill="#F99345"/>
<path d="M544.642 387.421C544.642 389.59 542.884 391.348 540.714 391.348C538.544 391.348 536.786 389.59 536.786 387.421C536.786 385.251 538.544 383.493 540.714 383.493C542.884 383.493 544.642 385.251 544.642 387.421Z" fill="#F99345"/>
<path d="M558.783 387.262C558.783 389.432 557.025 391.19 554.855 391.19C552.685 391.19 550.927 389.432 550.927 387.262C550.927 385.092 552.685 383.334 554.855 383.334C557.025 383.334 558.783 385.092 558.783 387.262Z" fill="#F99345"/>
<path d="M491.483 212.18L495.538 229.75L506.35 213.081L491.483 212.18Z" fill="#F99345"/>
<path d="M97.7556 158.573L98.206 171.636L111.271 163.527L97.7556 158.573Z" fill="#F99345"/>
<path d="M103.162 42.796L104.963 54.508L115.324 48.6527L103.162 42.796Z" fill="#F99345"/>
<path d="M26.1277 427.064L22.5245 445.084L41.4445 436.073L26.1277 427.064Z" fill="#F99345"/>
<path d="M516.26 357.689V371.203L527.073 362.193L516.26 357.689Z" fill="#F99345"/>
<path d="M389.223 0L390.124 18.0192L400.935 4.50402L389.223 0Z" fill="#F99345"/>
</svg>
